<svg width="1378" height="431" viewBox="0 0 1378 431" fill="none" xmlns="http://www.w3.org/2000/svg">
<path d="M168.93 333C211.398 333 236.766 311.926 236.766 278.711C236.766 252.712 221.12 238.395 186.7 231.637L170.16 228.43C152.614 224.994 145.35 220.184 145.35 211.479C145.35 201.744 154.067 194.872 168.93 194.872C180.777 194.872 189.717 198.881 194.97 209.189C199.775 217.206 205.363 220.528 214.303 220.528C224.585 220.413 231.514 213.885 231.514 204.149C231.514 200.713 230.955 197.964 229.837 195.101C222.015 174.141 199.44 162 168.595 162C131.492 162 104.559 182.502 104.559 214.343C104.559 239.54 121.322 255.69 153.396 261.874L170.048 265.081C189.158 268.861 195.975 273.557 195.975 282.72C195.975 292.799 185.582 300.129 169.601 300.129C156.637 300.129 145.797 295.777 140.321 285.468C135.068 277.222 129.704 274.359 121.769 274.359C111.376 274.359 104 281.46 104 291.997C104 295.433 104.671 298.983 106.123 302.42C112.829 319.485 133.951 333 168.93 333Z" fill="#6747E5"/>
<path d="M287.772 330.137H358.737C369.801 330.137 376.953 323.952 376.953 313.186C376.953 302.42 369.689 296.235 358.737 296.235H308.223V184.22C308.223 170.247 300.736 162.344 287.772 162.344C274.808 162.344 267.209 170.247 267.209 184.22V308.146C267.209 322.119 274.808 330.137 287.772 330.137Z" fill="#6747E5"/>
<path d="M425.724 332.657C438.687 332.657 446.175 324.754 446.175 310.781V184.22C446.175 170.247 438.687 162.344 425.724 162.344C412.76 162.344 405.161 170.247 405.161 184.22V310.781C405.161 324.754 412.76 332.657 425.724 332.657Z" fill="#6747E5"/>
<path d="M550.265 332.657C566.917 332.657 577.086 324.868 583.233 307.115L623.577 193.039C624.918 189.374 625.589 185.824 625.589 181.929C625.589 170.247 616.983 162.344 604.467 162.344C593.514 162.344 587.144 167.384 584.015 178.608L551.718 289.019H550.824L518.191 179.181C514.95 167.613 508.356 162.344 496.957 162.344C483.993 162.344 475.276 170.591 475.276 182.617C475.276 186.854 475.947 190.749 477.176 194.414L517.185 307.115C523.443 324.868 533.39 332.657 550.265 332.657Z" fill="#6747E5"/>
<path d="M675.029 332.657C687.993 332.657 695.481 324.754 695.481 310.781V283.407L710.456 267.372L752.253 320.86C758.847 329.45 764.77 332.771 773.375 332.771C784.55 332.771 793.044 323.952 793.044 312.499C793.044 306.657 790.25 300.358 783.545 291.882L742.307 240.113L780.863 198.422C786.339 192.352 788.462 187.771 788.462 181.586C788.462 170.82 779.857 162.23 769.128 162.23C762.199 162.23 757.059 164.978 751.247 171.621L696.375 233.928H695.481V184.22C695.481 170.247 687.993 162.344 675.029 162.344C662.066 162.344 654.466 170.247 654.466 184.22V310.781C654.466 324.754 662.066 332.657 675.029 332.657Z" fill="#6747E5"/>
<path d="M843.155 332.657C856.119 332.657 863.607 324.754 863.607 310.781V184.22C863.607 170.247 856.119 162.344 843.155 162.344C830.192 162.344 822.592 170.247 822.592 184.22V310.781C822.592 324.754 830.192 332.657 843.155 332.657Z" fill="#6747E5"/>
<path d="M920.535 331.626C932.046 331.626 941.322 322.119 941.322 310.322C941.322 298.525 932.046 289.019 920.535 289.019C909.025 289.019 899.861 298.525 899.861 310.322C899.861 322.119 909.025 331.626 920.535 331.626Z" fill="#6747E5"/>
<path d="M998.139 330.137H1054.58C1089.11 330.137 1110.9 311.468 1110.9 282.491C1110.9 260.5 1093.69 243.893 1071.9 242.862V241.945C1089.78 239.426 1103.41 224.651 1103.41 206.096C1103.41 180.555 1084.3 164.864 1052.56 164.864H998.139C985.175 164.864 977.576 172.881 977.576 186.854V308.146C977.576 322.119 985.175 330.137 998.139 330.137ZM1018.59 232.21V194.643H1041.72C1055.47 194.643 1063.52 201.515 1063.52 213.083C1063.52 224.994 1054.58 232.21 1039.71 232.21H1018.59ZM1018.59 300.358V257.751H1042.73C1059.6 257.751 1069.22 265.31 1069.22 278.825C1069.22 292.799 1059.83 300.358 1042.95 300.358H1018.59Z" fill="#6747E5"/>
<path d="M1201.69 332.657C1214.66 332.657 1222.14 324.754 1222.14 310.781V273.328L1269.64 196.475C1272.66 191.665 1274 186.969 1274 181.929C1274 170.705 1265.39 162.344 1253.77 162.344C1245.61 162.344 1240.25 166.124 1234.99 175.745L1202.47 233.584H1201.69L1169.17 175.745C1163.69 165.666 1158.89 162.344 1149.95 162.344C1137.99 162.344 1129.27 170.705 1129.27 182.273C1129.27 187.083 1130.61 191.894 1133.52 196.59L1181.13 273.328V310.781C1181.13 324.754 1188.62 332.657 1201.69 332.657Z" fill="#6747E5"/>
<circle cx="843" cy="121" r="23" fill="#6747E5"/>
<circle cx="427" cy="121" r="23" fill="#6747E5"/>
</svg>
